<svg width="48" height="49" viewBox="0 0 48 49" fill="none" xmlns="http://www.w3.org/2000/svg">
<path fill-rule="evenodd" clip-rule="evenodd" d="M20.9883 16.9939V17.0071L15.174 17.0071V32.4374L24.4525 37.7947L33.733 32.4363V17.0072H37.9031V34.8359H37.8981L37.9029 34.8441L24.4601 42.6057L24.4559 42.5985L24.45 42.6087L11.0021 34.8441L11.0069 34.8358H11.0039V17.0071H11V12.837L19.2575 12.837L21.4966 10.5978L21.4925 10.5937L24.4413 7.64502L24.4453 7.64899L24.4493 7.64502L27.3981 10.5937L27.394 10.5978L29.6332 12.837L37.8906 12.837V17.0071L27.9023 17.0071V16.9939L27.8974 16.9989L24.4453 13.5467L20.9932 16.9989L20.9883 16.9939Z" fill="#0B0B0B"/>
</svg>
