<svg width="48" height="49" viewBox="0 0 48 49" fill="none" xmlns="http://www.w3.org/2000/svg">
<path d="M20.4688 13.3423L20.4687 8.645L27.9794 8.645L27.9794 13.3423L24.2241 13.3423L20.4688 13.3423Z" fill="#0B0B0B"/>
<path d="M35.75 21.1118L40.4473 21.1118L40.4473 28.6225L35.75 28.6225L35.75 24.8671L35.75 21.1118Z" fill="#0B0B0B"/>
<path d="M29.7109 14.062L33.0324 10.7405L38.3433 16.0514L35.0218 19.3728L32.3664 16.7174L29.7109 14.062Z" fill="#0B0B0B"/>
<path d="M35.2109 30.3608L38.5324 33.6823L33.2216 38.9932L29.9001 35.6717L32.5555 33.0163L35.2109 30.3608Z" fill="#0B0B0B"/>
<path d="M20.4688 41.0894L20.4687 36.3921L27.9794 36.3921L27.9794 41.0894L24.2241 41.0894L20.4688 41.0894Z" fill="#0B0B0B"/>
<path d="M8 21.1116L12.6973 21.1116L12.6973 28.6222L8 28.6222L8 24.8669L8 21.1116Z" fill="#0B0B0B"/>
<path d="M10.0938 33.6821L13.4152 30.3606L18.7261 35.6715L15.4046 38.993L12.7492 36.3375L10.0938 33.6821Z" fill="#0B0B0B"/>
<path d="M15.5938 10.7407L18.9152 14.0622L13.6044 19.373L10.2829 16.0516L12.9383 13.3961L15.5938 10.7407Z" fill="#0B0B0B"/>
<path fill-rule="evenodd" clip-rule="evenodd" d="M31.2036 21.9287L28.6484 19.3735L24.3233 23.6986L22.5509 25.4711L19.7911 22.7113L17.2344 25.268L19.8898 27.9234L22.5452 30.5789L22.5493 30.5748L22.5534 30.5789L31.2036 21.9287Z" fill="#0B0B0B"/>
<circle cx="24.4126" cy="24.8671" r="12.1838" stroke="#0B0B0B" stroke-width="3.37926"/>
</svg>
