<svg width="48" height="49" viewBox="0 0 48 49" fill="none" xmlns="http://www.w3.org/2000/svg">
<path fill-rule="evenodd" clip-rule="evenodd" d="M31.3818 39.2623L38.758 31.886L33.2774 26.4054L30.6025 23.7305L30.6028 15.2469L30.5915 15.2469L30.5952 15.2432L23.8819 8.52988L20.7713 11.6405L24.128 14.9971L26.2037 17.0729L26.2035 22.518L22.3744 26.3471L16.9283 26.3473L14.8545 24.2735L12.789 22.208L12.7893 17.762L8.39027 17.762L8.38984 24.0249L8.38728 24.0274L8.38984 24.03L8.38984 24.0322L8.39203 24.0322L15.1006 30.7407L15.1033 30.738L15.1033 30.7464L22.8656 30.7461L31.3818 39.2623Z" fill="#0B0B0B"/>
<path d="M18.1799 12.928L18.1799 8.52896L23.8764 8.52852L23.8764 12.9275L18.1799 12.928Z" fill="#0B0B0B"/>
</svg>
