<svg width="48" height="49" viewBox="0 0 48 49" fill="none" xmlns="http://www.w3.org/2000/svg">
<path d="M32.6328 18.1264L31.5534 22.1545L38.3341 23.9716L39.4135 19.9435L32.6328 18.1264Z" fill="#0B0B0B"/>
<path d="M30.4531 22.6314L27.1226 25.141L31.3387 30.7364L34.6693 28.2268L30.4531 22.6314Z" fill="#0B0B0B"/>
<path d="M19.4531 25.1109L16.1227 22.6011L11.8826 28.2275L15.213 30.7373L19.4531 25.1109Z" fill="#0B0B0B"/>
<path d="M21.2267 31.7916L25.3969 31.7917L25.3971 24.7131L21.2269 24.713L21.2267 31.7916Z" fill="#0B0B0B"/>
<path d="M8.36719 19.9447L9.44642 23.9729L16.2285 22.1559L15.1492 18.1277L8.36719 19.9447Z" fill="#0B0B0B"/>
<path fill-rule="evenodd" clip-rule="evenodd" d="M23.8809 23.6333C28.1039 23.6333 31.5273 20.2099 31.5273 15.9868H35.3621C35.3621 17.3534 35.1181 18.7079 34.6428 19.9868C34.5937 20.1189 34.5421 20.2503 34.4881 20.3807C33.911 21.7738 33.0653 23.0395 31.9991 24.1057C30.9329 25.1719 29.6672 26.0176 28.2741 26.5946C26.8811 27.1716 25.3881 27.4686 23.8802 27.4686C22.3724 27.4686 20.8794 27.1716 19.4863 26.5946C18.0933 26.0176 16.8276 25.1719 15.7614 24.1057C14.6952 23.0395 13.8495 21.7738 13.2724 20.3807C13.2184 20.2503 13.1668 20.1189 13.1177 19.9868C12.6424 18.7079 12.3984 17.3534 12.3984 15.9868H16.2344C16.2344 20.2099 19.6578 23.6333 23.8809 23.6333Z" fill="#0B0B0B"/>
</svg>
