<svg width="238" height="53" fill="none" xmlns="http://www.w3.org/2000/svg"><g clip-path="url(#clip0)" fill="#ED3237"><path d="M100.5 17.5A17.6 17.6 0 0082.6.2H77a17.8 17.8 0 00-17.4 17.9l.3 17.2a17.7 17.7 0 0017.9 17.4h5.5a17.7 17.7 0 0017.4-17.9l-.2-17.3zM82.2 42.2h-4a6.7 6.7 0 01-6.7-6.6L71.2 17a6.701 6.701 0 016.6-6.8h4a6.8 6.8 0 016.8 6.6l.2 18.6a6.6 6.6 0 01-6.6 6.8z"/><path fill-rule="evenodd" clip-rule="evenodd" d="M21 .2h12.4V4h7.2A14.5 14.5 0 0155 18.4v12.1a14.4 14.4 0 01-14.4 14.3h-7.2v7.84H21V44.8h-6.6A14.4 14.4 0 010 30.5V18.4A14.5 14.5 0 0114.4 4H21V.2zm0 12.9h-2.8a6.9 6.9 0 00-7 6.9v8.9a6.9 6.9 0 007 6.9H21V13.1zm12.4 22.7h2.8a6.9 6.9 0 007-6.9V20a6.9 6.9 0 00-7-6.9h-2.8v22.7z"/><path d="M184.2.2l-9.7 23-11.1-23H150L168.7 37l-6.5 15.4h13.4L197.2.2h-13zM149.4 52.4l-19.3-28.5L147.3.2h-13.4l-15 22.6V0h-12.4v52.4h12.4V27.2l17.2 25.2h13.3zM225.2 36.5a6.501 6.501 0 01-6.5 5.7h-4a6.701 6.701 0 01-6.7-6.6l-.3-18.6a6.705 6.705 0 016.6-6.8h4a6.802 6.802 0 016.6 5.4h11.9A17.603 17.603 0 00219.1.2h-5.6a17.8 17.8 0 00-17.4 17.9l.3 17.2a17.7 17.7 0 0017.9 17.4h5.5a17.6 17.6 0 0017.3-16.1l-11.9-.1z"/></g><defs><clipPath id="clip0"><path fill="#fff" d="M0 0h237.1v52.6H0z"/></clipPath></defs></svg>