<svg width="270" height="70" viewBox="0 0 270 70" fill="none" xmlns="http://www.w3.org/2000/svg">
<path fill-rule="evenodd" clip-rule="evenodd" d="M49.3866 22.5931L69.9828 20.003L69.3622 24.7467L47.6655 27.4753L42.5309 22.3407L45.2611 0.629494L50.0064 0L47.4131 20.6196L49.3866 22.5931ZM22.5932 20.6134L20.0027 0.0172524L24.7467 0.638048L27.4753 22.3344L22.3408 27.469L0.629348 24.7386L0.000144978 19.9937L20.6198 22.5868L22.5932 20.6134ZM12.1547 12.3727L12.8922 18.7771L8.09439 18.5247L6.8325 9.12898L8.91382 7.04766L18.3119 8.31013L18.5959 13.0728L12.1547 12.3727ZM57.6272 12.1547L51.2229 12.8923L51.4752 8.09439L60.8709 6.83238L62.9524 8.91395L61.6902 18.312L56.9272 18.596L57.6272 12.1547ZM51.2229 57.1078L57.6272 57.8451L56.9272 51.4039L61.6897 51.6881L62.9524 61.0863L60.8709 63.1674L51.4752 61.9056L51.2229 57.1078ZM49.3866 47.4068L47.4131 49.3803L50.0064 70L45.2611 69.3706L42.5309 47.6592L47.6655 42.5246L69.3618 45.2531L69.9828 49.9972L49.3866 47.4068ZM12.1547 57.6272L18.596 56.9272L18.312 61.6902L8.91395 62.9524L6.83238 60.8709L8.09439 51.4752L12.8923 51.2229L12.1547 57.6272ZM20.6196 47.4131L0 50.0064L0.629494 45.2611L22.3407 42.5309L27.4753 47.6655L24.7467 69.3622L20.003 69.9828L22.5931 49.3866L20.6196 47.4131ZM32.5064 2.45767H37.5452L37.5451 23.0328L32.5064 23.033V2.45767ZM67.5679 37.5194V32.4806H46.9928V37.5194H67.5679ZM32.5064 46.9672H37.5452V67.5423H32.5064V46.9672ZM23.0586 37.5193L23.0587 32.4806H2.48347V37.5194L23.0586 37.5193ZM84.4001 23.0946H84.82L89.2289 36.0275L93.6379 23.0946H94.0578H97.417V47.0289H94.0578V32.9482L91.1185 41.5702H87.3394L84.4001 32.9482V47.0289H81.0409V23.0946H84.4001ZM125.13 23.0946H121.771V47.0289H125.13V23.0946ZM204.072 23.0946H200.713V47.0289H204.072V23.0946ZM179.298 37.911L173.839 23.0946H170.48V47.0289H173.839V32.2124L179.298 47.0289H182.657V23.0946H179.298V37.911ZM148.225 23.0946H147.385H144.866H144.026L139.407 47.0289H142.766L143.658 42.41H148.593L149.485 47.0289H152.844L148.225 23.0946ZM146.126 29.6221L144.387 38.6309H147.864L146.126 29.6221ZM135.208 23.0946H139.407V26.8737H135.208V47.0289H131.849V26.8737H127.65V23.0946H131.849H135.208ZM101.616 23.0946H104.975V47.0289H101.616V23.0946ZM112.533 23.0946H109.174V43.2498V47.0289H112.533H118.832V43.2498H112.533V23.0946ZM191.895 32.3324L195.254 23.0946H198.613L193.574 36.9513V47.0289H190.215V36.9513L185.176 23.0946H188.536L191.895 32.3324ZM155.363 23.0946H156.623H158.723H159.982C163.693 23.0946 166.701 26.1025 166.701 29.813V31.4926C166.701 34.02 165.305 36.2214 163.242 37.3683L167.96 47.0289H164.181L159.875 38.211H158.723V47.0289H155.363V23.0946ZM158.723 34.8518V26.4538H159.982C161.837 26.4538 163.341 27.9577 163.341 29.813V31.4926C163.341 33.3478 161.837 34.8518 159.982 34.8518H158.723Z" fill="#C6BEA9"/>
</svg>
