<svg width="361" height="75" viewBox="0 0 361 75" fill="none" xmlns="http://www.w3.org/2000/svg">
<path d="M10.9385 48.9443H24.5088V60H10.9385L0 48.9443V35.5146H10.9385V48.9443ZM60.0039 48.9443L49.0654 60H35.5449V48.9443H49.0654V35.5146H60.0039V48.9443ZM60.0039 11.0518V24.4785H49.0654V11.0518H35.5449V-0.00390625H49.0654L60.0039 11.0518ZM24.5088 11.0518H10.9385V24.4785H0V11.0518L10.9385 -0.00390625H24.5088V11.0518Z" fill="#1E1E1E"/>
<circle cx="30.0035" cy="29.9976" r="8.85795" fill="#1E1E1E"/>
<path d="M326.621 35.1797H342.81V27.7715H326.621V35.1797ZM349.548 41.0127H326.621V49.7842H348.321V56.2158H325.305L319.209 50.1201V27.6816L325.305 21.5859H344.022L344.066 21.6338L349.508 27.5195L349.548 27.5625V41.0127Z" fill="#1E1E1E" stroke="#1E1E1E" stroke-width="0.300856"/>
<path d="M312.758 56.2158H305.346V28.1396H288.728V56.2158H281.315V21.5859H306.539L312.713 27.7598L312.758 27.8037V56.2158Z" fill="#1E1E1E" stroke="#1E1E1E" stroke-width="0.300856"/>
<path d="M273.344 21.5825V56.2124H265.932V21.5825H273.344ZM273.344 9.98975V15.8081H265.932V9.98975H273.344Z" fill="#1E1E1E" stroke="#1E1E1E" stroke-width="0.300856"/>
<path d="M257.961 8.36279V56.2153H250.549V8.36279H257.961Z" fill="#1E1E1E" stroke="#1E1E1E" stroke-width="0.300856"/>
<path d="M228.021 8.35254V22.8096H242.611V29.2402H228.021V49.7822H242.611V56.2139H226.827L226.783 56.1689L220.609 49.9951V8.35254H228.021Z" fill="#1E1E1E" stroke="#1E1E1E" stroke-width="0.300856"/>
<path d="M214.158 56.2158H206.746V28.1396H190.127V56.2158H182.715V21.5859H207.939L207.983 21.6299L214.114 27.7598L214.158 27.8037V56.2158Z" fill="#1E1E1E" stroke="#1E1E1E" stroke-width="0.300856"/>
<path d="M139.942 21.5859V28.2617H122.9V56.2158H115.488V27.8037L121.706 21.5859H139.942Z" fill="#1E1E1E" stroke="#1E1E1E" stroke-width="0.300856"/>
<path d="M113.354 6.81592V13.3696H88.6733V24.9136H108.714V31.3452H88.6733V56.2144H81.2612V12.9116L87.3569 6.81592H113.354Z" fill="#1E1E1E" stroke="#1E1E1E" stroke-width="0.300856"/>
<mask id="path-11-outside-1_1_250" maskUnits="userSpaceOnUse" x="143.186" y="20.7363" width="34" height="36" fill="black">
<rect fill="white" x="143.186" y="20.7363" width="34" height="36"/>
<path d="M176.216 27.7441V50.0576L170.208 56.0654H150.194L144.186 50.0576V27.7441L150.194 21.7363H170.208L176.216 27.7441ZM151.297 50.0576H169.105V27.7441H151.297V50.0576Z"/>
</mask>
<path d="M176.216 27.7441V50.0576L170.208 56.0654H150.194L144.186 50.0576V27.7441L150.194 21.7363H170.208L176.216 27.7441ZM151.297 50.0576H169.105V27.7441H151.297V50.0576Z" fill="#1E1E1E"/>
<path d="M176.216 27.7441H176.517V27.6195L176.429 27.5314L176.216 27.7441ZM176.216 50.0576L176.429 50.2704L176.517 50.1822V50.0576H176.216ZM170.208 56.0654V56.3663H170.333L170.421 56.2782L170.208 56.0654ZM150.194 56.0654L149.981 56.2782L150.069 56.3663H150.194V56.0654ZM144.186 50.0576H143.885V50.1822L143.973 50.2704L144.186 50.0576ZM144.186 27.7441L143.973 27.5314L143.885 27.6195V27.7441H144.186ZM150.194 21.7363V21.4355H150.069L149.981 21.5236L150.194 21.7363ZM170.208 21.7363L170.421 21.5236L170.333 21.4355H170.208V21.7363ZM151.297 50.0576H150.997V50.3585H151.297V50.0576ZM169.105 50.0576V50.3585H169.406V50.0576H169.105ZM169.105 27.7441H169.406V27.4433H169.105V27.7441ZM151.297 27.7441V27.4433H150.997V27.7441H151.297ZM176.216 27.7441H175.915V50.0576H176.216H176.517V27.7441H176.216ZM176.216 50.0576L176.004 49.8449L169.996 55.8527L170.208 56.0654L170.421 56.2782L176.429 50.2704L176.216 50.0576ZM170.208 56.0654V55.7646H150.194V56.0654V56.3663H170.208V56.0654ZM150.194 56.0654L150.407 55.8527L144.399 49.8449L144.186 50.0576L143.973 50.2704L149.981 56.2782L150.194 56.0654ZM144.186 50.0576H144.487V27.7441H144.186H143.885V50.0576H144.186ZM144.186 27.7441L144.399 27.9569L150.407 21.9491L150.194 21.7363L149.981 21.5236L143.973 27.5314L144.186 27.7441ZM150.194 21.7363V22.0372H170.208V21.7363V21.4355H150.194V21.7363ZM170.208 21.7363L169.996 21.9491L176.004 27.9569L176.216 27.7441L176.429 27.5314L170.421 21.5236L170.208 21.7363ZM151.297 50.0576V50.3585H169.105V50.0576V49.7568H151.297V50.0576ZM169.105 50.0576H169.406V27.7441H169.105H168.804V50.0576H169.105ZM169.105 27.7441V27.4433H151.297V27.7441V28.045H169.105V27.7441ZM151.297 27.7441H150.997V50.0576H151.297H151.598V27.7441H151.297Z" fill="#1E1E1E" mask="url(#path-11-outside-1_1_250)"/>
</svg>
