<svg width="199" height="34" viewBox="0 0 199 34" fill="none" xmlns="http://www.w3.org/2000/svg">
<path d="M6.19922 27.7383H13.8906V34.0039H6.19922L0 27.7383V20.127H6.19922V27.7383ZM34.0078 27.7383L27.8086 34.0039H20.1455V27.7383H27.8086V20.127H34.0078V27.7383ZM34.0078 6.26172V13.8721H27.8086V6.26172H20.1455V-0.00390625H27.8086L34.0078 6.26172ZM13.8906 6.26172H6.19922V13.8721H0V6.26172L6.19922 -0.00390625H13.8906V6.26172Z" fill="#F2F2F2"/>
<circle cx="17.0047" cy="16.9998" r="5.02033" fill="#F2F2F2"/>
<path d="M185.181 19.8701H194.226V15.8018H185.181V19.8701ZM198.175 23.3066H185.181V28.1475H197.479V31.9229H184.343L184.299 31.8789L180.894 28.4746L180.85 28.4297V15.6592L184.343 12.166H195.007L195.051 12.2139L198.135 15.5498L198.175 15.5928V23.3066Z" fill="#F2F2F2" stroke="#F2F2F2" stroke-width="0.300856"/>
<path d="M177.323 31.9229H172.992V16.0107H163.704V31.9229H159.373V12.166H173.761L177.323 15.7285V31.9229Z" fill="#F2F2F2" stroke="#F2F2F2" stroke-width="0.300856"/>
<path d="M154.985 12.1641V31.9209H150.654V12.1641H154.985ZM154.985 5.59375V9.02148H150.654V5.59375H154.985Z" fill="#F2F2F2" stroke="#F2F2F2" stroke-width="0.300856"/>
<path d="M146.267 4.67188V31.9229H141.936V4.67188H146.267Z" fill="#F2F2F2" stroke="#F2F2F2" stroke-width="0.300856"/>
<path d="M129.298 4.66602V12.8594H137.566V16.6348H129.298V28.1465H137.566V31.9219H128.529L124.967 28.3594V4.66602H129.298Z" fill="#F2F2F2" stroke="#F2F2F2" stroke-width="0.300856"/>
<path d="M121.44 31.9229H117.109V16.0107H107.821V31.9229H103.49V12.166H117.878L121.44 15.7285V31.9229Z" fill="#F2F2F2" stroke="#F2F2F2" stroke-width="0.300856"/>
<path d="M79.3779 12.166V16.0801H69.7197V31.9229H65.3887V15.7285L68.9512 12.166H79.3779Z" fill="#F2F2F2" stroke="#F2F2F2" stroke-width="0.300856"/>
<path d="M64.3096 3.79492V7.63965H50.3213V14.0518H61.6797V17.8271H50.3213V31.9229H45.9902V7.28809L49.4834 3.79492H64.3096Z" fill="#F2F2F2" stroke="#F2F2F2" stroke-width="0.300856"/>
<mask id="path-11-outside-1_1_216" maskUnits="userSpaceOnUse" x="80.7188" y="11.3164" width="20" height="21" fill="black">
<rect fill="white" x="80.7188" y="11.3164" width="20" height="21"/>
<path d="M99.8721 15.7217V28.3682L96.4668 31.7725H85.124L81.7188 28.3682V15.7217L85.124 12.3164H96.4668L99.8721 15.7217ZM85.749 28.3682H95.8418V15.7217H85.749V28.3682Z"/>
</mask>
<path d="M99.8721 15.7217V28.3682L96.4668 31.7725H85.124L81.7188 28.3682V15.7217L85.124 12.3164H96.4668L99.8721 15.7217ZM85.749 28.3682H95.8418V15.7217H85.749V28.3682Z" fill="#F2F2F2"/>
<path d="M99.8721 15.7217H100.173V15.5971L100.085 15.5089L99.8721 15.7217ZM99.8721 28.3682L100.085 28.5809L100.173 28.4928V28.3682H99.8721ZM96.4668 31.7725V32.0733H96.5914L96.6795 31.9852L96.4668 31.7725ZM85.124 31.7725L84.9113 31.9852L84.9994 32.0733H85.124V31.7725ZM81.7188 28.3682H81.4179V28.4928L81.506 28.5809L81.7188 28.3682ZM81.7188 15.7217L81.506 15.5089L81.4179 15.5971V15.7217H81.7188ZM85.124 12.3164V12.0156H84.9994L84.9113 12.1037L85.124 12.3164ZM96.4668 12.3164L96.6795 12.1037L96.5914 12.0156H96.4668V12.3164ZM85.749 28.3682H85.4482V28.669H85.749V28.3682ZM95.8418 28.3682V28.669H96.1427V28.3682H95.8418ZM95.8418 15.7217H96.1427V15.4208H95.8418V15.7217ZM85.749 15.7217V15.4208H85.4482V15.7217H85.749ZM99.8721 15.7217H99.5712V28.3682H99.8721H100.173V15.7217H99.8721ZM99.8721 28.3682L99.6594 28.1554L96.2541 31.5597L96.4668 31.7725L96.6795 31.9852L100.085 28.5809L99.8721 28.3682ZM96.4668 31.7725V31.4716H85.124V31.7725V32.0733H96.4668V31.7725ZM85.124 31.7725L85.3367 31.5597L81.9315 28.1554L81.7188 28.3682L81.506 28.5809L84.9113 31.9852L85.124 31.7725ZM81.7188 28.3682H82.0196V15.7217H81.7188H81.4179V28.3682H81.7188ZM81.7188 15.7217L81.9315 15.9344L85.3368 12.5291L85.124 12.3164L84.9113 12.1037L81.506 15.5089L81.7188 15.7217ZM85.124 12.3164V12.6173H96.4668V12.3164V12.0156H85.124V12.3164ZM96.4668 12.3164L96.2541 12.5291L99.6593 15.9344L99.8721 15.7217L100.085 15.5089L96.6795 12.1037L96.4668 12.3164ZM85.749 28.3682V28.669H95.8418V28.3682V28.0673H85.749V28.3682ZM95.8418 28.3682H96.1427V15.7217H95.8418H95.5409V28.3682H95.8418ZM95.8418 15.7217V15.4208H85.749V15.7217V16.0225H95.8418V15.7217ZM85.749 15.7217H85.4482V28.3682H85.749H86.0499V15.7217H85.749Z" fill="#F2F2F2" mask="url(#path-11-outside-1_1_216)"/>
</svg>
