<svg width="58" height="58" viewBox="0 0 58 58" fill="none" xmlns="http://www.w3.org/2000/svg">
<g clip-path="url(#clip0_1_294)">
<path d="M58 29C58 21.3087 54.9447 13.9325 49.5061 8.4939C44.0675 3.05535 36.6913 0 29 0C21.3087 0 13.9325 3.05535 8.4939 8.4939C3.05535 13.9325 0 21.3087 0 29C0 36.6913 3.05535 44.0675 8.4939 49.5061C13.9325 54.9447 21.3087 58 29 58C36.6913 58 44.0675 54.9447 49.5061 49.5061C54.9447 44.0675 58 36.6913 58 29Z" fill="#0B0B0B"/>
<path d="M54.5894 22.9667C53.2217 17.2848 49.9969 12.2219 45.4261 8.58021C40.768 4.84591 34.9702 2.82206 29.0001 2.84641C22.9605 2.84641 17.274 4.83228 12.5741 8.58337C8.00472 12.225 4.78019 17.2865 3.41073 22.9667H4.50138C5.85044 17.6165 8.91514 12.8556 13.2266 9.41239C17.6975 5.82949 23.2613 3.88701 28.9906 3.90869C34.7906 3.90869 40.2439 5.8126 44.7578 9.40924C49.0719 12.8501 52.1372 17.612 53.483 22.9636H54.5894V22.9667ZM4.51715 35.0711C5.86842 40.4075 8.92958 45.1548 13.2329 48.5876C17.7047 52.1712 23.2696 54.1137 29.0001 54.0913C34.8001 54.0913 40.2407 52.1968 44.7515 48.6002C49.0634 45.1696 52.1307 40.419 53.483 35.0774H54.5737C53.2005 40.7474 49.976 45.7976 45.4103 49.4292C40.7538 53.1531 34.9624 55.17 29.0001 55.1441C22.9668 55.1441 17.274 53.1583 12.5741 49.4103C8.01689 45.7755 4.79685 40.7292 3.42019 35.0648H4.50769L4.51715 35.0711ZM3.00095 32.5304H4.23345C4.23345 32.5304 4.04747 30.6549 4.04747 29.7754H7.21856V28.6722H4.04747C4.04747 27.7738 4.17671 26.6043 4.17671 26.6043H7.59682V25.4601H3.00095C2.66052 27.6698 2.71095 30.3302 3.00095 32.5336V32.5304ZM14.4433 27.9755C14.4433 26.494 13.4977 25.4601 11.6127 25.4601H9.34628V32.5336H10.5977V30.4752H11.37C11.5906 30.4752 11.805 30.4689 12.0067 30.4437L13.5071 32.5241H14.9666L13.1604 30.1285C14.0493 29.7187 14.4528 28.9433 14.4528 27.9692M11.5339 29.3625H10.604V26.598H11.5339C12.7096 26.598 13.1037 27.1938 13.1037 27.9692C13.1037 28.7415 12.7002 29.3625 11.5339 29.3625ZM16.7003 32.5304H21.2993V31.3799H17.9423V29.6935H20.9841V28.5902H17.9423V26.6043H21.2993V25.4601H16.7003V32.5336V32.5304ZM23.4838 32.5304H28.0796V31.3799H24.7257V29.6935H27.7676V28.5902H24.7257V26.6043H28.0796V25.4601H23.4838V32.5336V32.5304ZM32.9277 25.4601H30.2578V32.5336H32.9277C35.0901 32.5336 36.7103 31.0174 36.7103 28.9937C36.7103 26.9668 35.1216 25.4601 32.9277 25.4601ZM32.9371 31.3862H31.5187V26.6043H32.9371C34.3556 26.6043 35.3706 27.6225 35.3706 29.0095C35.3706 30.3964 34.3052 31.3862 32.9371 31.3862ZM42.0406 25.3372C39.9192 25.3372 38.2675 26.9511 38.2675 28.9937C38.2675 31.0331 39.8782 32.6439 42.0406 32.6439C44.203 32.6439 45.8232 31.0804 45.8232 28.9905C45.8232 26.9038 44.2345 25.3372 42.0406 25.3372ZM42.0501 31.547C40.6789 31.547 39.6134 30.4342 39.6134 29.0158C39.6134 27.5973 40.6442 26.4783 42.0501 26.4783C43.4528 26.4783 44.4836 27.5752 44.4836 29.0189C44.4836 30.4626 43.4181 31.5501 42.0501 31.5501V31.547ZM54.2805 25.4286L51.4215 30.5761L48.49 25.4254H47.9383L47.7366 32.5304H48.9533L48.9723 28.5366L51.1725 32.5935H51.6075L54.0851 27.9913C54.0851 27.9913 54.2711 29.4318 53.8833 32.5304H55.0433C55.3176 29.7471 55.3806 28.5461 55.0276 25.4254H54.2868L54.2805 25.4286Z" fill="white"/>
<path d="M21.961 13.7119H20.3219V12.7915H24.6372V13.7088H22.9792V18.6262H21.9579V13.7119H21.961ZM27.8713 18.6293H26.8469V12.7915H27.8713V15.2975H30.5885V12.7915H31.6035V18.6293H30.5885V16.2085H27.8713V18.6293ZM35.2916 16.2085V17.7184H38.1789V18.6293H34.2734V12.7915H38.1758V13.7088H35.2916V15.2975H37.558V16.2116H35.2884L35.2916 16.2085ZM18.0965 42.7655V45.136H17.1035V39.4211H20.9303V40.3131H18.0996V41.8703H20.3187V42.7655H18.0933H18.0965ZM26.4529 42.9452V39.4179H27.4679V42.9452C27.4679 43.894 26.8784 45.2022 25.2109 45.2022C23.5403 45.2022 22.9603 43.9035 22.9603 42.9452V39.4179H23.9563V42.9452C23.9563 43.314 24.2085 44.3069 25.2078 44.3069C26.207 44.3069 26.4497 43.3077 26.4497 42.9452H26.4529ZM29.9045 39.3549L33.5074 42.838V39.4179H34.5067V45.1612L34.4342 45.1927L30.8407 41.6938V45.136H29.8383V39.3864L29.9013 39.3549H29.9045ZM37.1198 45.1391V39.4211H39.1215C41.2965 39.4211 41.9521 41.0791 41.9521 42.2738C41.9521 43.4685 41.3059 45.1423 39.1215 45.1423H37.1198V45.136V45.1391ZM39.1215 44.2407C40.7007 44.2407 40.934 42.7813 40.934 42.2738C40.934 41.7663 40.7101 40.3131 39.1215 40.3131H38.1033V44.2407H39.1215Z" fill="white"/>
</g>
<defs>
<clipPath id="clip0_1_294">
<rect width="58" height="58" fill="white"/>
</clipPath>
</defs>
</svg>
