<svg width="241" height="57" viewBox="0 0 241 57" fill="none" xmlns="http://www.w3.org/2000/svg">
<g clip-path="url(#clip0_1_283)">
<path d="M22.0058 13.0381C9.85231 13.0381 0 22.8793 0 35.0191C0 47.1588 9.85231 57.0001 22.0058 57.0001C34.1592 57.0001 44.0116 47.1588 44.0116 35.0191C44.0019 22.8793 34.1592 13.0381 22.0058 13.0381ZM22.0058 55.1748C18.5831 55.1748 15.8082 46.1447 15.8082 35.0094C15.8082 23.874 18.5831 14.8441 22.0058 14.8441C25.4285 14.8441 28.2034 23.874 28.2034 35.0094C28.2034 46.1447 25.4285 55.1748 22.0058 55.1748Z" fill="black"/>
<path d="M22.006 8.61471C29.7648 8.61471 36.0545 6.68624 36.0545 4.30736C36.0545 1.92847 29.7648 0 22.006 0C14.2472 0 7.95752 1.92847 7.95752 4.30736C7.95752 6.68624 14.2472 8.61471 22.006 8.61471Z" fill="black"/>
<path d="M76.6679 25.0961H79.6424V46.5958H76.6679V42.5083C75.7486 43.8048 74.6129 44.8312 73.2789 45.6055C71.945 46.3798 70.5029 46.7759 68.9525 46.7759C66.8975 46.7759 65.0767 46.3077 63.4544 45.3714C61.832 44.435 60.5702 43.1385 59.6507 41.4639C58.7314 39.8074 58.2627 37.9347 58.2627 35.8459C58.2627 33.7572 58.7314 31.8845 59.6507 30.2279C60.5702 28.5713 61.8501 27.2749 63.4544 26.3205C65.0767 25.3842 66.9155 24.916 68.9525 24.916C70.4848 24.916 71.927 25.3122 73.2789 26.0865C74.6129 26.8608 75.7486 27.9051 76.6679 29.1835V25.0961ZM72.9905 42.9044C74.1442 42.2022 75.0455 41.2478 75.6945 40.0235C76.3436 38.799 76.686 37.4125 76.686 35.8459C76.686 34.2974 76.3615 32.8929 75.6945 31.6684C75.0455 30.444 74.1442 29.4716 72.9905 28.7874C71.8369 28.0851 70.5388 27.7431 69.0788 27.7431C67.6186 27.7431 66.3207 28.0851 65.1669 28.7874C64.0132 29.4896 63.1119 30.444 62.4629 31.6684C61.814 32.8929 61.4715 34.2974 61.4715 35.8459C61.4715 37.3945 61.7959 38.799 62.4629 40.0235C63.1119 41.2478 64.0132 42.2202 65.1669 42.9044C66.3207 43.6067 67.6186 43.9488 69.0788 43.9488C70.5388 43.9488 71.8369 43.6067 72.9905 42.9044Z" fill="black"/>
<path d="M99.2011 42.1122V25.0962H102.284V46.5958H98.8947L86.294 29.1296V46.5958H83.2114V25.0962H86.9969L99.2011 42.1122Z" fill="black"/>
<path d="M115.083 35.5403H125.899V46.5962H123.141V42.959C122.294 44.1653 121.212 45.1196 119.896 45.8219C118.581 46.5242 117.066 46.8843 115.39 46.8843C113.389 46.8843 111.55 46.3981 109.892 45.4258C108.233 44.4534 106.917 43.121 105.98 41.4284C105.024 39.7357 104.556 37.8632 104.556 35.8284C104.556 33.7756 105.042 31.9209 106.016 30.2284C106.989 28.5358 108.323 27.2033 110 26.2309C111.676 25.2585 113.551 24.7725 115.588 24.7725C117.733 24.7725 119.68 25.3487 121.411 26.519C123.141 27.6894 124.385 29.256 125.142 31.2188H121.645C121.014 30.1384 120.167 29.274 119.121 28.6618C118.076 28.0316 116.904 27.7254 115.588 27.7254C114.128 27.7254 112.812 28.0856 111.622 28.8059C110.432 29.5261 109.495 30.4985 108.81 31.7408C108.125 32.9833 107.782 34.3518 107.782 35.8464C107.782 37.341 108.125 38.7093 108.792 39.9518C109.477 41.1943 110.396 42.1667 111.55 42.8869C112.722 43.6072 114.002 43.9672 115.426 43.9672C117.337 43.9672 118.923 43.4271 120.203 42.3467C121.483 41.2663 122.33 39.9338 122.745 38.3312H115.083V35.5403Z" fill="black"/>
<path d="M143.385 26.0325C145.025 26.8608 146.359 28.1393 147.405 29.868C148.45 31.5965 148.972 33.7393 148.972 36.2783C148.972 36.7283 148.955 37.0704 148.937 37.2865H130.604C130.802 38.583 131.271 39.7354 131.991 40.7618C132.713 41.7882 133.614 42.5804 134.714 43.1566C135.813 43.7328 137.003 44.0209 138.3 44.0209C139.834 44.0209 141.184 43.6608 142.339 42.9225C143.493 42.1844 144.411 41.176 145.096 39.8795H148.323C147.837 41.284 147.079 42.5265 146.071 43.5708C145.061 44.6332 143.871 45.4435 142.537 46.0197C141.203 46.5959 139.779 46.902 138.318 46.902C136.318 46.902 134.479 46.4158 132.803 45.4435C131.126 44.4711 129.828 43.1386 128.873 41.4461C127.917 39.7534 127.449 37.8807 127.449 35.8461C127.449 33.7933 127.917 31.9386 128.855 30.246C129.792 28.5535 131.09 27.221 132.748 26.2486C134.406 25.2762 136.264 24.79 138.318 24.79C140.032 24.79 141.743 25.2042 143.385 26.0325ZM133.019 29.5438C131.667 30.7862 130.838 32.4068 130.567 34.3875H145.745C145.637 33.0911 145.223 31.9386 144.466 30.9122C143.709 29.8858 142.771 29.0937 141.653 28.5175C140.517 27.9412 139.365 27.6531 138.157 27.6531C136.083 27.6711 134.371 28.3014 133.019 29.5438Z" fill="black"/>
<path d="M154.236 25.0962V43.6428H165.612V46.5958H151.172V25.0962H154.236Z" fill="black"/>
<path d="M179.024 45.4435C177.311 44.4711 175.942 43.1386 174.968 41.4461C173.994 39.7534 173.49 37.8807 173.49 35.8461C173.49 33.7933 173.976 31.9386 174.968 30.246C175.96 28.5535 177.311 27.221 179.024 26.2486C180.737 25.2762 182.647 24.79 184.703 24.79C186.775 24.79 188.668 25.2762 190.381 26.2486C192.093 27.221 193.463 28.5535 194.436 30.246C195.429 31.9386 195.915 33.8113 195.915 35.8461C195.915 37.8987 195.429 39.7534 194.436 41.4461C193.445 43.1386 192.093 44.4711 190.381 45.4435C188.668 46.4158 186.757 46.902 184.703 46.902C182.63 46.902 180.737 46.4158 179.024 45.4435ZM188.741 42.8685C189.967 42.1484 190.922 41.176 191.625 39.9335C192.327 38.691 192.688 37.3225 192.688 35.8281C192.688 34.3335 192.327 32.965 191.625 31.7225C190.922 30.4801 189.949 29.5078 188.741 28.7876C187.515 28.0673 186.181 27.7071 184.703 27.7071C183.224 27.7071 181.872 28.0673 180.664 28.7876C179.438 29.5078 178.483 30.4801 177.78 31.7225C177.078 32.965 176.717 34.3335 176.717 35.8281C176.717 37.3225 177.078 38.691 177.78 39.9335C178.483 41.176 179.457 42.1484 180.664 42.8685C181.89 43.5888 183.224 43.9489 184.703 43.9489C186.181 43.9489 187.533 43.5888 188.741 42.8685Z" fill="black"/>
<path d="M214.103 42.1122V25.0962H217.187V46.5958H213.797L201.196 29.1296V46.5958H198.114V25.0962H201.899L214.103 42.1122Z" fill="black"/>
<path d="M235.41 26.0325C237.052 26.8608 238.386 28.1393 239.43 29.868C240.476 31.5965 240.999 33.7393 240.999 36.2783C240.999 36.7283 240.981 37.0704 240.962 37.2865H222.629C222.827 38.583 223.296 39.7354 224.018 40.7618C224.739 41.7882 225.64 42.5804 226.739 43.1566C227.839 43.7328 229.03 44.0209 230.327 44.0209C231.859 44.0209 233.211 43.6608 234.365 42.9225C235.518 42.1844 236.438 41.176 237.123 39.8795H240.35C239.863 41.284 239.106 42.5265 238.096 43.5708C237.087 44.6332 235.897 45.4435 234.563 46.0197C233.23 46.5959 231.806 46.902 230.345 46.902C228.344 46.902 226.505 46.4158 224.828 45.4435C223.153 44.4711 221.854 43.1386 220.899 41.4461C219.943 39.7534 219.476 37.8807 219.476 35.8461C219.476 33.7933 219.943 31.9386 220.881 30.246C221.818 28.5535 223.117 27.221 224.775 26.2486C226.433 25.2762 228.29 24.79 230.345 24.79C232.075 24.79 233.77 25.2042 235.41 26.0325ZM225.063 29.5438C223.711 30.7862 222.882 32.4068 222.611 34.3875H237.79C237.682 33.0911 237.268 31.9386 236.51 30.9122C235.753 29.8858 234.816 29.0937 233.698 28.5175C232.563 27.9412 231.408 27.6531 230.201 27.6531C228.128 27.6711 226.415 28.3014 225.063 29.5438Z" fill="black"/>
</g>
<defs>
<clipPath id="clip0_1_283">
<rect width="241" height="57" fill="white"/>
</clipPath>
</defs>
</svg>
