<svg width="360" height="47" viewBox="0 0 360 47" fill="none" xmlns="http://www.w3.org/2000/svg">
<g clip-path="url(#clip0_1_305)">
<path d="M350.085 0.111816H350.021V0.176377V46.6599V46.7245H350.085H359.746H359.809V46.6599V0.176377V0.111816H359.746H350.085Z" fill="black" stroke="black" stroke-width="0.25"/>
<path d="M299.746 0.111816H299.682V0.176377V46.6599V46.7245H299.746H308.883H308.947V46.6599V11.0403L329.387 46.6924L329.406 46.7245H329.442H343.474H343.538V46.6599V0.176377V0.111816H343.474H334.337H334.274V0.176377V35.7959L313.833 0.143887L313.815 0.111816H313.778H299.746Z" fill="black" stroke="black" stroke-width="0.25"/>
<path d="M235.17 0.111816H235.106V0.176377V46.6599V46.7245H235.17H244.939H245.002V46.6599V11.9536L257.84 46.6826L257.856 46.7245H257.9H270.405H270.449L270.465 46.6826L283.303 12.0194V46.6599V46.7245H283.366H293.136H293.199V46.6599V0.176377V0.111816H293.136H276.983H276.939L276.923 0.154609L264.153 36.3749L251.382 0.154609L251.366 0.111816H251.322H235.17Z" fill="black" stroke="black" stroke-width="0.25"/>
<path d="M200.4 0.111816H200.358L200.342 0.152044L181.721 46.6355L181.685 46.7245H181.78H192.467H192.51L192.526 46.6835L196.313 36.8965H217.076L220.864 46.6835L220.879 46.7245H220.923H231.61H231.705L231.669 46.6356L213.114 0.152118L213.098 0.111816H213.055H200.4ZM199.969 27.4707L206.695 10.18L213.42 27.4707H199.969Z" fill="black" stroke="black" stroke-width="0.25"/>
<path d="M142.119 0.111816H142.055V0.176377V46.6599V46.7245H142.119H177.203H177.267V46.6599V37.3632V37.2987H177.203H151.928V0.176377V0.111816H151.865H142.119Z" fill="black" stroke="black" stroke-width="0.25"/>
<path d="M94.7851 37.3177L94.7668 37.3366V37.3632V46.6599V46.7245H94.8304H135.508H135.572V46.6599V37.3632V37.2987H135.508H108.389L135.554 9.51855L135.572 9.4997V9.4731V0.176377V0.111816H135.508H94.8304H94.7668V0.176377V9.4731V9.53766H94.8304H121.95L94.7851 37.3177Z" fill="black" stroke="black" stroke-width="0.25"/>
<path d="M50.5933 0.111816H50.5298V0.176377V46.6599V46.7245H50.5933H88.2205H88.284V46.6599V37.3632V37.2987H88.2205H60.5589V27.799H83.4678H83.5313V27.7345V19.1018V19.0372H83.4678H60.5589V9.53766H88.2205H88.284V9.4731V0.176377V0.111816H88.2205H50.5933Z" fill="black" stroke="black" stroke-width="0.25"/>
<path d="M0.254233 0.111816H0.190674V0.176377V46.6599V46.7245H0.254233H9.39157H9.45513V46.6599V11.0403L29.8958 46.6924L29.9141 46.7245H29.9507H43.983H44.0466V46.6599V0.176377V0.111816H43.983H34.8457H34.7821V0.176377V35.7959L14.3415 0.143887L14.3232 0.111816H14.2866H0.254233Z" fill="black" stroke="black" stroke-width="0.25"/>
</g>
<defs>
<clipPath id="clip0_1_305">
<rect width="360" height="47" fill="white"/>
</clipPath>
</defs>
</svg>
