<svg width="174" height="47" viewBox="0 0 174 47" fill="none" xmlns="http://www.w3.org/2000/svg">
<g clip-path="url(#clip0_1_298)">
<path d="M174.002 19.0005H148.26V27.7858H174.002V19.0005Z" fill="#0B0B0B"/>
<path fill-rule="evenodd" clip-rule="evenodd" d="M132.602 23.3933L113.317 12.1507L117.667 4.54248L142.286 18.8944L139.713 23.3952L142.284 27.8933L117.665 42.2453L113.315 34.637L132.602 23.3933Z" fill="#0B0B0B"/>
<path fill-rule="evenodd" clip-rule="evenodd" d="M101.184 23.3955L84.1661 6.21213L90.3184 0L110.42 20.2967L107.341 23.4059L110.41 26.5045L90.3082 46.8013L84.1558 40.5892L101.184 23.3955Z" fill="#0B0B0B"/>
<path d="M19.4033 45.5572H0V0H19.4033C22.1942 0.0412096 24.5165 0.370886 26.3702 0.98903C29.5278 2.03988 32.0843 3.96642 34.0399 6.76867C35.6085 9.0352 36.678 11.4871 37.2483 14.1246C37.8187 16.762 38.1039 19.2758 38.1039 21.666C38.1039 27.7237 36.9021 32.8543 34.4983 37.0577C31.2389 42.724 26.2073 45.5572 19.4033 45.5572ZM26.4008 11.6211C24.9545 9.14853 22.0923 7.91224 17.8144 7.91224H9.13638V37.645H17.8144C22.2553 37.645 25.3517 35.4299 27.1035 31C28.061 28.5685 28.5398 25.6735 28.5398 22.315C28.5398 17.6789 27.8268 14.1143 26.4008 11.6211Z" fill="#0B0B0B"/>
<path d="M52.4349 9.67392C51.457 10.9926 50.9884 12.7543 51.0292 14.9591H42.9012C42.9827 12.7337 43.3596 10.6217 44.0318 8.62308C44.7448 6.87167 45.8652 5.25419 47.393 3.77064C48.5338 2.7198 49.8885 1.91621 51.457 1.35988C53.0256 0.803556 54.9507 0.525391 57.2322 0.525391C61.4693 0.525391 64.8815 1.63805 67.4686 3.86337C70.0761 6.06808 71.3798 9.03517 71.3798 12.7646C71.3798 15.4021 70.6058 17.6273 69.0575 19.4406C68.0798 20.5739 67.0612 21.3466 66.0019 21.7586C66.7964 21.7586 67.9372 22.4488 69.4242 23.8294C71.6447 25.9105 72.7548 28.754 72.7548 32.3598C72.7548 36.1511 71.4512 39.489 68.8436 42.3737C66.2566 45.2378 62.4166 46.6699 57.3238 46.6699C51.0496 46.6699 46.6902 44.5991 44.2457 40.4575C42.9623 38.2528 42.2493 35.3681 42.1067 31.8035H50.6626C50.6626 33.5961 50.9478 35.0797 51.5181 36.2541C52.5774 38.4177 54.5025 39.4993 57.2933 39.4993C59.0045 39.4993 60.4915 38.9122 61.7546 37.7376C63.0379 36.5426 63.6796 34.8323 63.6796 32.6071C63.6796 29.6605 62.498 27.6928 60.1351 26.7038C58.7906 26.1474 56.672 25.8693 53.7793 25.8693V19.5643C56.6109 19.523 58.5868 19.2449 59.7073 18.7297C61.6426 17.8643 62.6101 16.1129 62.6101 13.4755C62.6101 11.7653 62.111 10.3745 61.1129 9.30304C60.1351 8.23158 58.7498 7.69586 56.9572 7.69586C54.8997 7.69586 53.3923 8.35521 52.4349 9.67392Z" fill="#0B0B0B"/>
</g>
<defs>
<clipPath id="clip0_1_298">
<rect width="174" height="47" fill="white"/>
</clipPath>
</defs>
</svg>
