<svg width="177" height="67" viewBox="0 0 177 67" fill="none" xmlns="http://www.w3.org/2000/svg">
<g clip-path="url(#clip0_1_275)">
<path d="M68.3779 22.2233C68.5125 23.6458 69.4234 24.9239 71.8144 24.9239C73.9881 24.9239 74.8162 24.1508 74.8162 22.9758C74.8162 21.8007 74.1537 21.2956 72.8599 21.1101L69.1335 20.6978C66.049 20.3576 64.2686 18.595 64.2686 15.7088C64.2686 12.5032 66.6907 10.3076 71.6178 10.3076C76.8967 10.3076 79.0083 12.8227 79.2463 15.8428H74.7644C74.5781 14.4822 73.5637 13.5958 71.6281 13.5958C69.8788 13.5958 68.8334 14.2864 68.8334 15.4099C68.8334 16.2964 69.3509 16.9355 70.6655 17.0695L73.9364 17.389C77.6937 17.7395 79.3809 19.5021 79.3809 22.6047C79.3809 25.9444 77.259 28.2121 71.7109 28.2121C66.1525 28.2121 64.1134 25.3053 63.9478 22.2542H68.3572L68.3779 22.2233ZM94.9486 10.7302V14.2864H89.473V27.7585H84.9186V14.2864H79.412V10.7302H94.9486ZM106.469 27.7585L105.362 24.5632H98.0125L96.9153 27.7585H92.3713L98.1988 10.7302H105.175L111.024 27.7585H106.469ZM99.1614 21.1616H104.213L101.687 13.8638L99.1614 21.1616ZM126.571 24.6868C126.571 26.0784 126.726 26.7999 126.881 27.7585H122.306C122.089 27.0679 121.975 26.1093 121.975 24.6868V23.9962C121.975 22.3573 120.94 21.5842 119.46 21.5842H116.344V27.7688H111.748V10.7199H121.23C125.09 10.7199 126.974 12.699 126.974 15.4305C127.009 16.5021 126.653 17.55 125.972 18.3802C125.291 19.2103 124.33 19.7664 123.269 19.9453C125.039 20.3164 126.54 21.2338 126.54 23.7385V24.6765H126.571V24.6868ZM120.07 18.3476C121.623 18.3476 122.275 17.6261 122.275 16.183C122.275 14.843 121.602 14.1833 120.101 14.1833H116.396V18.3476H120.07ZM143.049 10.7302V14.2864H137.563V27.7585H133.009V14.2864H127.512V10.7302H143.039H143.049ZM144.095 10.7302H148.649V20.7081C148.649 23.6767 149.725 24.5013 152.065 24.5013C154.404 24.5013 155.501 23.6767 155.501 20.7081V10.7199H160.035V21.2853C160.035 25.8207 157.344 28.1812 152.065 28.1812C146.786 28.1812 144.126 25.8516 144.126 21.275V10.7405H144.095V10.7302ZM177 16.3892C177 19.6979 175.447 22.2336 171.504 22.2336H166.504V27.7998H161.919V10.7199H171.473C175.416 10.7199 176.969 13.2659 176.969 16.3685H177V16.3892ZM169.961 18.7393C171.607 18.7393 172.249 17.7498 172.249 16.4098C172.249 15.0698 171.628 14.2245 170.024 14.2245H166.504V18.7599H169.972V18.7393H169.961ZM86.109 29.9541H90.5599L87.6306 46.9824H79.9295L77.3211 33.5618L74.7334 46.9824H67.0737L64.1134 29.9541H68.5642L71.0381 44.2508L73.9364 29.9541H80.6644L83.6041 44.323L86.0779 29.9438H86.109V29.9541ZM102.318 33.5102H99.3167V43.4262H102.318V46.9824H91.7606V43.4262H94.7727V33.4999H91.7709V29.9438H102.318V33.4999V33.5102ZM107.98 41.4472C108.115 42.8593 109.026 44.1478 111.417 44.1478C113.591 44.1478 114.419 43.3747 114.419 42.1893C114.419 41.0142 113.746 40.5092 112.452 40.3236L108.726 39.9216C105.641 39.5712 103.871 37.8085 103.871 34.9224C103.871 31.7167 106.283 29.5212 111.22 29.5212C116.489 29.5212 118.611 32.0362 118.849 35.0564H114.367C114.181 33.6958 113.156 32.8093 111.231 32.8093C109.481 32.8093 108.436 33.5102 108.436 34.6338C108.436 35.5099 108.953 36.149 110.258 36.283L113.539 36.6128C117.296 36.953 118.983 38.7156 118.983 41.8182C118.983 45.1579 116.861 47.4359 111.303 47.4359C105.755 47.4359 103.716 44.5188 103.55 41.4678H107.949L107.98 41.4472ZM125.204 43.4262H134.437V46.9824H120.671V29.9541H134.365V33.5102H125.204V36.6644H133.588V39.9732H125.204V43.4262ZM64.0823 57.6921C64.0823 52.7444 66.846 48.745 73.5016 48.745C79.4016 48.745 81.7409 51.4972 81.9583 54.8059H77.4246C77.2176 53.3113 75.9444 52.2187 73.5016 52.2187C70.4481 52.2187 68.8127 53.8473 68.8127 57.6921C68.8127 61.2998 70.179 63.1242 73.2325 63.1242C76.2964 63.1242 77.3418 61.5987 77.642 59.7021H72.1146V56.8675H81.9376V66.2268H78.1492V63.083C77.4764 64.8971 75.9237 66.6082 72.1664 66.6082C66.5769 66.6082 64.0927 62.547 64.0927 57.7127V57.6818L64.0823 57.6921ZM83.8628 49.1676H88.4276V59.1351C88.4276 62.1038 89.5041 62.9387 91.8434 62.9387C94.1723 62.9387 95.2695 62.1141 95.2695 59.1351V49.1676H99.8135V59.7227C99.8135 64.2684 97.1223 66.6288 91.8434 66.6288C86.5541 66.6288 83.8939 64.2993 83.8939 59.7227V49.1676H83.8628ZM113.332 49.1676H118.352L111.965 61.2792V66.1959H107.411V61.2792L100.952 49.1676H106.055L108.498 54.7544C108.902 55.7233 109.305 56.6819 109.626 57.6405C109.968 56.6819 110.371 55.713 110.775 54.7544L113.301 49.1676H113.321H113.332ZM122.306 60.6607C122.441 62.0831 123.341 63.3613 125.732 63.3613C127.906 63.3613 128.734 62.5882 128.734 61.4028C128.734 60.2381 128.071 59.7227 126.778 59.5475L123.051 59.1351C119.967 58.795 118.186 57.0324 118.186 54.1462C118.186 50.9302 120.608 48.745 125.546 48.745C130.804 48.745 132.926 51.2498 133.174 54.2699H128.692C128.496 52.9093 127.481 52.0331 125.546 52.0331C123.807 52.0331 122.751 52.7238 122.751 53.8473C122.751 54.7338 123.269 55.3419 124.583 55.4965L127.854 55.8264C131.611 56.1768 133.309 57.9395 133.309 61.0421C133.309 64.3818 131.187 66.6495 125.629 66.6495C120.07 66.6495 118.031 63.7324 117.865 60.6916H122.275L122.306 60.6607Z" fill="#0B0B0B"/>
<path d="M50.4297 11.6475L25.836 41.2718C24.5525 43.3333 21.3851 42.2613 21.5921 39.8596L22.4823 24.8928C22.6893 22.5633 19.6358 21.4707 18.3006 23.3982L7.29757 41.2821C6.03477 43.1375 3.10547 42.2201 3.10547 39.973V25.5422" stroke="#0B0B0B" stroke-width="5.19" stroke-linejoin="bevel"/>
<path d="M24.6042 56.9499C25.7435 56.9499 26.8361 56.4992 27.6417 55.697C28.4472 54.8948 28.8998 53.8067 28.8998 52.6722C28.8998 51.5377 28.4472 50.4497 27.6417 49.6474C26.8361 48.8452 25.7435 48.3945 24.6042 48.3945C23.4649 48.3945 22.3723 48.8452 21.5667 49.6474C20.7612 50.4497 20.3086 51.5377 20.3086 52.6722C20.3086 53.8067 20.7612 54.8948 21.5667 55.697C22.3723 56.4992 23.4649 56.9499 24.6042 56.9499Z" fill="#0B0B0B"/>
<path d="M13.7048 56.9499C14.8441 56.9499 15.9367 56.4992 16.7423 55.697C17.5478 54.8948 18.0004 53.8067 18.0004 52.6722C18.0004 51.5377 17.5478 50.4497 16.7423 49.6474C15.9367 48.8452 14.8441 48.3945 13.7048 48.3945C12.5655 48.3945 11.4729 48.8452 10.6673 49.6474C9.86175 50.4497 9.40918 51.5377 9.40918 52.6722C9.40918 53.8067 9.86175 54.8948 10.6673 55.697C11.4729 56.4992 12.5655 56.9499 13.7048 56.9499Z" fill="#0B0B0B"/>
<path d="M33.8682 12.4414H47.6038C48.3175 12.4414 49.0021 12.7238 49.5068 13.2264C50.0115 13.729 50.295 14.4106 50.295 15.1214V28.7997" stroke="#0B0B0B" stroke-width="5.19" stroke-miterlimit="10"/>
<path d="M35.2553 52.5381V58.1764C35.2526 59.5926 34.6871 60.9502 33.6825 61.9526C32.6778 62.9549 31.3157 63.5206 29.8935 63.5261H8.46722C7.04509 63.5206 5.68291 62.9549 4.67828 61.9526C3.67364 60.9502 3.10819 59.5926 3.10547 58.1764V52.5381" stroke="#0B0B0B" stroke-width="5.19" stroke-linejoin="round"/>
<path d="M48.1317 16.4922C49.5608 16.4922 50.7194 15.3385 50.7194 13.9153C50.7194 12.4921 49.5608 11.3384 48.1317 11.3384C46.7025 11.3384 45.5439 12.4921 45.5439 13.9153C45.5439 15.3385 46.7025 16.4922 48.1317 16.4922Z" fill="#0B0B0B"/>
</g>
<defs>
<clipPath id="clip0_1_275">
<rect width="177" height="67" fill="white"/>
</clipPath>
</defs>
</svg>
